<svg xmlns="http://www.w3.org/2000/svg" viewBox="0 0 850 140" width="850" height="140" font-family="Arial, Helvetica, sans-serif">
  <defs>
    <radialGradient id="ftBg" cx="50%" cy="20%" r="90%">
      <stop offset="0%" stop-color="#161b26"></stop>
      <stop offset="100%" stop-color="#0d1117"></stop>
    </radialGradient>
    <linearGradient id="waveGrad" x1="0" y1="0" x2="1" y2="0">
      <stop offset="0" stop-color="#bd93f9"></stop>
      <stop offset="0.33" stop-color="#ff79c6"></stop>
      <stop offset="0.66" stop-color="#50fa7b"></stop>
      <stop offset="1" stop-color="#85B7EB"></stop>
    </linearGradient>
    <filter id="iconGlow" x="-80%" y="-80%" width="260%" height="260%">
      <feGaussianBlur stdDeviation="3.5"></feGaussianBlur>
    </filter>
  </defs>

  <rect width="850" height="140" fill="url(#ftBg)"></rect>

  <g opacity="1">
    <animate attributeName="opacity" values="0;1" dur="1s" begin="0s" fill="freeze" calcMode="spline" keySplines="0.4 0 0.2 1"></animate>
    <animateTransform attributeName="transform" type="translate" values="0 8;0 0" dur="1s" begin="0s" fill="freeze" calcMode="spline" keySplines="0.4 0 0.2 1"></animateTransform>
    <text x="425" y="44" text-anchor="middle" font-size="21" font-style="italic" fill="#e6e9f0" font-weight="500">The work isn&#8217;t the proof. The doing is.</text>
  </g>

  <g transform="translate(0,72)" fill="none" stroke="#8b94a3" stroke-width="1.6" stroke-linecap="round" stroke-linejoin="round">

    <g transform="translate(297,0)">
      <circle cx="0" cy="0" r="24" fill="#c6cedb" filter="url(#iconGlow)" opacity="0.12">
        <animate attributeName="opacity" values="0.12;0.32;0.12" dur="3s" begin="0s" repeatCount="indefinite" calcMode="spline" keySplines="0.4 0 0.6 1;0.4 0 0.6 1"></animate>
      </circle>
      <circle cx="0" cy="0" r="20" fill="#11161f" stroke="#2b313d" stroke-width="1"></circle>
      <g transform="translate(-9,-9) scale(0.75)" fill="#8b94a3" stroke="none">
        <path d="M12 1.5 C6.2 1.5 1.5 6.2 1.5 12 c0 4.64 3.01 8.57 7.18 9.96 .53.1.72-.23.72-.51 v-1.8 c-2.92.63-3.54-1.4-3.54-1.4 -.48-1.22-1.17-1.54-1.17-1.54 -.95-.65.07-.64.07-.64 1.05.07 1.6 1.08 1.6 1.08 .94 1.6 2.46 1.14 3.06.87 .1-.68.37-1.14.66-1.4 -2.33-.27-4.78-1.17-4.78-5.19 0-1.15.41-2.08 1.08-2.82 -.11-.27-.47-1.34.1-2.79 0 0 .88-.28 2.88 1.08 a9.9 9.9 0 0 1 5.24 0 c2-1.36 2.88-1.08 2.88-1.08 .57 1.45.21 2.52.1 2.79 .67.74 1.08 1.67 1.08 2.82 0 4.03-2.46 4.92-4.8 5.18 .38.33.71.97.71 1.96 v2.9 c0 .28.19.62.73.51 C19.49 20.56 22.5 16.64 22.5 12 22.5 6.2 17.8 1.5 12 1.5 Z"></path>
      </g>
    </g>

    <g transform="translate(363,0)">
      <circle cx="0" cy="0" r="24" fill="#85B7EB" filter="url(#iconGlow)" opacity="0.10">
        <animate attributeName="opacity" values="0.10;0.30;0.10" dur="3.2s" begin="0.4s" repeatCount="indefinite" calcMode="spline" keySplines="0.4 0 0.6 1;0.4 0 0.6 1"></animate>
      </circle>
      <rect x="-20" y="-20" width="40" height="40" rx="20" fill="#11161f" stroke="#2b313d" stroke-width="1"></rect>
      <rect x="-11" y="-11" width="22" height="22" rx="4" fill="none" stroke="#85B7EB" stroke-width="1.6"></rect>
      <circle cx="-5.5" cy="-5" r="1.7" fill="#85B7EB" stroke="none"></circle>
      <line x1="-5.5" y1="-1" x2="-5.5" y2="7" stroke="#85B7EB"></line>
      <path d="M1 7 V1.5 C1 -0.6 2.6 -1.3 4 -1.3 C6 -1.3 6.8 0.2 6.8 2.3 V7" stroke="#85B7EB"></path>
    </g>

    <g transform="translate(429,0)">
      <circle cx="0" cy="0" r="24" fill="#50fa7b" filter="url(#iconGlow)" opacity="0.10">
        <animate attributeName="opacity" values="0.10;0.30;0.10" dur="3.4s" begin="0.8s" repeatCount="indefinite" calcMode="spline" keySplines="0.4 0 0.6 1;0.4 0 0.6 1"></animate>
      </circle>
      <circle cx="0" cy="0" r="20" fill="#11161f" stroke="#2b313d" stroke-width="1"></circle>
      <circle cx="-8" cy="0" r="6.5" fill="#50fa7b" stroke="none"></circle>
      <ellipse cx="2.5" cy="0" rx="2.6" ry="6.5" fill="#50fa7b" stroke="none"></ellipse>
      <ellipse cx="9.5" cy="0" rx="1.2" ry="6.5" fill="#50fa7b" stroke="none"></ellipse>
    </g>

    <g transform="translate(495,0)">
      <circle cx="0" cy="0" r="24" fill="#ff79c6" filter="url(#iconGlow)" opacity="0.10">
        <animate attributeName="opacity" values="0.10;0.30;0.10" dur="3.6s" begin="1.2s" repeatCount="indefinite" calcMode="spline" keySplines="0.4 0 0.6 1;0.4 0 0.6 1"></animate>
      </circle>
      <circle cx="0" cy="0" r="20" fill="#11161f" stroke="#2b313d" stroke-width="1"></circle>
      <rect x="-11" y="-7.5" width="22" height="15" rx="2.5" fill="none" stroke="#ff79c6" stroke-width="1.6"></rect>
      <path d="M-11 -6 L0 2 L11 -6" fill="none" stroke="#ff79c6" stroke-width="1.6"></path>
    </g>
  </g>

  <g transform="translate(0,112)">
    <animateTransform attributeName="transform" type="translate" values="0,112;-210,112" dur="9s" begin="0s" repeatCount="indefinite" calcMode="spline" keySplines="0.42 0 0.58 1"></animateTransform>
    <path d="M0 14 Q 52.5 7.0 105.0 14 Q 157.5 21.0 210.0 14 Q 262.5 7.0 315.0 14 Q 367.5 21.0 420.0 14 Q 472.5 7.0 525.0 14 Q 577.5 21.0 630.0 14 Q 682.5 7.0 735.0 14 Q 787.5 21.0 840.0 14 Q 892.5 7.0 945.0 14 Q 997.5 21.0 1050.0 14 Q 1102.5 7.0 1155.0 14 Q 1207.5 21.0 1260.0 14 Q 1312.5 7.0 1365.0 14 Q 1417.5 21.0 1470.0 14 Q 1522.5 7.0 1575.0 14 Q 1627.5 21.0 1680.0 14 Q 1732.5 7.0 1785.0 14 L 1700 28 L 0 28 Z" fill="url(#waveGrad)" opacity="0.16"></path>
    <path d="M0 18 Q 52.5 9.0 105.0 18 Q 157.5 27.0 210.0 18 Q 262.5 9.0 315.0 18 Q 367.5 27.0 420.0 18 Q 472.5 9.0 525.0 18 Q 577.5 27.0 630.0 18 Q 682.5 9.0 735.0 18 Q 787.5 27.0 840.0 18 Q 892.5 9.0 945.0 18 Q 997.5 27.0 1050.0 18 Q 1102.5 9.0 1155.0 18 Q 1207.5 27.0 1260.0 18 Q 1312.5 9.0 1365.0 18 Q 1417.5 27.0 1470.0 18 Q 1522.5 9.0 1575.0 18 Q 1627.5 27.0 1680.0 18 Q 1732.5 9.0 1785.0 18 L 1700 28 L 0 28 Z" fill="url(#waveGrad)" opacity="0.28"></path>
  </g>
</svg>
