<svg xmlns="http://www.w3.org/2000/svg" viewBox="0 0 900 900" width="900" height="900" role="img" aria-label="AI ecosystem tech stack">
<defs>
<radialGradient id="coreGlow" cx="50%" cy="50%" r="50%">
<stop offset="0%" stop-color="#bd93f9" stop-opacity="0.22"/>
<stop offset="100%" stop-color="#bd93f9" stop-opacity="0"/>
</radialGradient>
<radialGradient id="bgGlow" cx="50%" cy="50%" r="60%">
<stop offset="0%" stop-color="#161b26" stop-opacity="1"/>
<stop offset="100%" stop-color="#0d1117" stop-opacity="1"/>
</radialGradient>
</defs>
<rect x="0" y="0" width="900" height="900" rx="24" fill="url(#bgGlow)"/>
<g><line x1="450" y1="450" x2="450" y2="182" stroke="#bd93f9" stroke-width="1" stroke-opacity="0.28" stroke-dasharray="3 6"/><line x1="450" y1="182" x2="450" y2="94" stroke="#3776AB" stroke-width="1" stroke-opacity="0.32"/><line x1="450" y1="182" x2="526.21" y2="138" stroke="#EE4C2C" stroke-width="1" stroke-opacity="0.32"/><line x1="450" y1="182" x2="526.21" y2="226" stroke="#F59E0B" stroke-width="1" stroke-opacity="0.32"/><line x1="450" y1="182" x2="450" y2="270" stroke="#D97706" stroke-width="1" stroke-opacity="0.32"/><line x1="450" y1="182" x2="373.79" y2="226" stroke="#10B981" stroke-width="1" stroke-opacity="0.32"/><line x1="450" y1="182" x2="373.79" y2="138" stroke="#F97316" stroke-width="1" stroke-opacity="0.32"/><line x1="450" y1="450" x2="682.095" y2="316" stroke="#bd93f9" stroke-width="1" stroke-opacity="0.28" stroke-dasharray="3 6"/><line x1="682.095" y1="316" x2="758.305" y2="272" stroke="#A3E635" stroke-width="1" stroke-opacity="0.32"/><line x1="682.095" y1="316" x2="758.305" y2="360" stroke="#F43F5E" stroke-width="1" stroke-opacity="0.32"/><line x1="682.095" y1="316" x2="682.095" y2="404" stroke="#22C55E" stroke-width="1" stroke-opacity="0.32"/><line x1="682.095" y1="316" x2="605.885" y2="360" stroke="#06B6D4" stroke-width="1" stroke-opacity="0.32"/><line x1="682.095" y1="316" x2="605.885" y2="272" stroke="#F59E0B" stroke-width="1" stroke-opacity="0.32"/><line x1="682.095" y1="316" x2="682.095" y2="228" stroke="#E92063" stroke-width="1" stroke-opacity="0.32"/><line x1="450" y1="450" x2="682.095" y2="584" stroke="#bd93f9" stroke-width="1" stroke-opacity="0.28" stroke-dasharray="3 6"/><line x1="682.095" y1="584" x2="758.305" y2="628" stroke="#F59E0B" stroke-width="1" stroke-opacity="0.32"/><line x1="682.095" y1="584" x2="682.095" y2="672" stroke="#14B8A6" stroke-width="1" stroke-opacity="0.32"/><line x1="682.095" y1="584" x2="605.885" y2="628" stroke="#FF6F00" stroke-width="1" stroke-opacity="0.32"/><line x1="682.095" y1="584" x2="605.885" y2="540" stroke="#4169E1" stroke-width="1" stroke-opacity="0.32"/><line x1="682.095" y1="584" x2="682.095" y2="496" stroke="#C084FC" stroke-width="1" stroke-opacity="0.32"/><line x1="682.095" y1="584" x2="758.305" y2="540" stroke="#38BDF8" stroke-width="1" stroke-opacity="0.32"/><line x1="450" y1="450" x2="450" y2="718" stroke="#bd93f9" stroke-width="1" stroke-opacity="0.28" stroke-dasharray="3 6"/><line x1="450" y1="718" x2="450" y2="806" stroke="#A855F7" stroke-width="1" stroke-opacity="0.32"/><line x1="450" y1="718" x2="373.79" y2="762" stroke="#3DDC84" stroke-width="1" stroke-opacity="0.32"/><line x1="450" y1="718" x2="373.79" y2="674" stroke="#EE4C2C" stroke-width="1" stroke-opacity="0.32"/><line x1="450" y1="718" x2="450" y2="630" stroke="#22D3EE" stroke-width="1" stroke-opacity="0.32"/><line x1="450" y1="718" x2="526.21" y2="674" stroke="#3DDC84" stroke-width="1" stroke-opacity="0.32"/><line x1="450" y1="718" x2="526.21" y2="762" stroke="#8B5CF6" stroke-width="1" stroke-opacity="0.32"/><line x1="450" y1="450" x2="217.905" y2="584" stroke="#bd93f9" stroke-width="1" stroke-opacity="0.28" stroke-dasharray="3 6"/><line x1="217.905" y1="584" x2="141.695" y2="628" stroke="#f3edf8" stroke-width="1" stroke-opacity="0.32"/><line x1="217.905" y1="584" x2="141.695" y2="540" stroke="#61DAFB" stroke-width="1" stroke-opacity="0.32"/><line x1="217.905" y1="584" x2="217.905" y2="496" stroke="#3178C6" stroke-width="1" stroke-opacity="0.32"/><line x1="217.905" y1="584" x2="294.115" y2="540" stroke="#38BDF8" stroke-width="1" stroke-opacity="0.32"/><line x1="217.905" y1="584" x2="294.115" y2="628" stroke="#EC4899" stroke-width="1" stroke-opacity="0.32"/><line x1="217.905" y1="584" x2="217.905" y2="672" stroke="#8B5CF6" stroke-width="1" stroke-opacity="0.32"/><line x1="450" y1="450" x2="217.905" y2="316" stroke="#bd93f9" stroke-width="1" stroke-opacity="0.28" stroke-dasharray="3 6"/><line x1="217.905" y1="316" x2="141.695" y2="272" stroke="#10B981" stroke-width="1" stroke-opacity="0.32"/><line x1="217.905" y1="316" x2="217.905" y2="228" stroke="#4169E1" stroke-width="1" stroke-opacity="0.32"/><line x1="217.905" y1="316" x2="294.115" y2="272" stroke="#3ECF8E" stroke-width="1" stroke-opacity="0.32"/><line x1="217.905" y1="316" x2="294.115" y2="360" stroke="#2496ED" stroke-width="1" stroke-opacity="0.32"/><line x1="217.905" y1="316" x2="217.905" y2="404" stroke="#FF9900" stroke-width="1" stroke-opacity="0.32"/><line x1="217.905" y1="316" x2="141.695" y2="360" stroke="#A1A1AA" stroke-width="1" stroke-opacity="0.32"/></g>
<g><g><circle cx="450" cy="94" r="22" fill="#0d1117" stroke="#3776AB" stroke-width="1.6" stroke-opacity="0.92"/><svg x="435" y="79" width="30" height="30" viewBox="0 0 24 24"><path d="M12 3c-4 0-5 1.4-5 4v2h6v1H5c-1.5 0-2.6 1.5-2.6 3.5S3.5 17 5 17h2v-3c0-2 1.5-3.5 3.5-3.5H15c1.1 0 2-.9 2-2V7c0-2.6-1-4-5-4Z" fill="#3776AB"/><path d="M12 21c4 0 5-1.4 5-4v-2h-6v-1h8c1.5 0 2.6-1.5 2.6-3.5S20.5 7 19 7h-2v3c0 2-1.5 3.5-3.5 3.5H9c-1.1 0-2 .9-2 2V17c0 2.6 1 4 5 4Z" fill="#F7D54A"/><circle cx="10" cy="6" r="1" fill="#0d1117"/><circle cx="14" cy="18" r="1" fill="#0d1117"/></svg></g><g><circle cx="526.21" cy="138" r="22" fill="#0d1117" stroke="#EE4C2C" stroke-width="1.6" stroke-opacity="0.92"/><svg x="511.21" y="123" width="30" height="30" viewBox="0 0 24 24"><path d="M13 4 8.8 8.2a6 6 0 1 0 8.5.1" fill="none" stroke="#EE4C2C" stroke-width="2.4" stroke-linecap="round"/><circle cx="16.8" cy="5.8" r="1.8" fill="#EE4C2C"/></svg></g><g><circle cx="526.21" cy="226" r="22" fill="#0d1117" stroke="#F59E0B" stroke-width="1.6" stroke-opacity="0.92"/><svg x="511.21" y="211" width="30" height="30" viewBox="0 0 24 24"><circle cx="12" cy="12" r="8.5" fill="#F59E0B"/><circle cx="9" cy="10" r="1.2" fill="#0d1117"/><circle cx="15" cy="10" r="1.2" fill="#0d1117"/><path d="M8.5 14.2c2 2 5 2 7 0" fill="none" stroke="#0d1117" stroke-width="1.7" stroke-linecap="round"/><path d="M4.7 8.5 2.5 6.7m16.8 1.8 2.2-1.8" stroke="#F59E0B" stroke-width="2" stroke-linecap="round"/></svg></g><g><circle cx="450" cy="270" r="22" fill="#0d1117" stroke="#D97706" stroke-width="1.6" stroke-opacity="0.92"/><svg x="435" y="255" width="30" height="30" viewBox="0 0 24 24"><path d="M12 3.5 14.1 10l6.4 2-6.4 2L12 20.5 9.9 14l-6.4-2 6.4-2L12 3.5Z" fill="#D97706"/><circle cx="12" cy="12" r="2.3" fill="#0d1117" opacity="0.85"/></svg></g><g><circle cx="373.79" cy="226" r="22" fill="#0d1117" stroke="#10B981" stroke-width="1.6" stroke-opacity="0.92"/><svg x="358.79" y="211" width="30" height="30" viewBox="0 0 24 24"><g fill="none" stroke="#10B981" stroke-width="1.7" stroke-linecap="round"><path d="M7 7h10M7 7v10M17 7v10M7 17h10M7 7l10 10"/><circle cx="7" cy="7" r="2.3" fill="#0d1117"/><circle cx="17" cy="7" r="2.3" fill="#0d1117"/><circle cx="7" cy="17" r="2.3" fill="#0d1117"/><circle cx="17" cy="17" r="2.3" fill="#0d1117"/></g></svg></g><g><circle cx="373.79" cy="138" r="22" fill="#0d1117" stroke="#F97316" stroke-width="1.6" stroke-opacity="0.92"/><svg x="358.79" y="123" width="30" height="30" viewBox="0 0 24 24"><ellipse cx="12" cy="6" rx="6.5" ry="3" fill="none" stroke="#F97316" stroke-width="1.8"/><path d="M5.5 6v10c0 1.7 2.9 3 6.5 3s6.5-1.3 6.5-3V6" fill="none" stroke="#F97316" stroke-width="1.8"/><path d="M5.5 11c0 1.7 2.9 3 6.5 3s6.5-1.3 6.5-3" fill="none" stroke="#F97316" stroke-width="1.8"/></svg></g><g><circle cx="758.305" cy="272" r="22" fill="#0d1117" stroke="#A3E635" stroke-width="1.6" stroke-opacity="0.92"/><svg x="743.305" y="257" width="30" height="30" viewBox="0 0 24 24"><rect x="3" y="5" width="18" height="14" rx="3" fill="none" stroke="#A3E635" stroke-width="1.7"/><text x="12" y="14.6" text-anchor="middle" fill="#A3E635" font-size="6.5" font-weight="800" font-family="'JetBrains Mono',monospace">OCR</text></svg></g><g><circle cx="758.305" cy="360" r="22" fill="#0d1117" stroke="#F43F5E" stroke-width="1.6" stroke-opacity="0.92"/><svg x="743.305" y="345" width="30" height="30" viewBox="0 0 24 24"><rect x="3" y="5" width="18" height="14" rx="3" fill="none" stroke="#F43F5E" stroke-width="1.7"/><text x="12" y="14.6" text-anchor="middle" fill="#F43F5E" font-size="6.2" font-weight="800" font-family="'JetBrains Mono',monospace">PDF</text></svg></g><g><circle cx="682.095" cy="404" r="22" fill="#0d1117" stroke="#22C55E" stroke-width="1.6" stroke-opacity="0.92"/><svg x="667.095" y="389" width="30" height="30" viewBox="0 0 24 24"><rect x="3" y="5" width="18" height="14" rx="3" fill="none" stroke="#22C55E" stroke-width="1.7"/><text x="12" y="14.6" text-anchor="middle" fill="#22C55E" font-size="7" font-weight="800" font-family="'JetBrains Mono',monospace">XL</text></svg></g><g><circle cx="605.885" cy="360" r="22" fill="#0d1117" stroke="#06B6D4" stroke-width="1.6" stroke-opacity="0.92"/><svg x="590.885" y="345" width="30" height="30" viewBox="0 0 24 24"><rect x="3" y="5" width="18" height="14" rx="3" fill="none" stroke="#06B6D4" stroke-width="1.7"/><text x="12" y="14.6" text-anchor="middle" fill="#06B6D4" font-size="7" font-weight="800" font-family="'JetBrains Mono',monospace">PQ</text></svg></g><g><circle cx="605.885" cy="272" r="22" fill="#0d1117" stroke="#F59E0B" stroke-width="1.6" stroke-opacity="0.92"/><svg x="590.885" y="257" width="30" height="30" viewBox="0 0 24 24"><g stroke="#F59E0B" stroke-width="1.6" stroke-linecap="round"><path d="M12 3v5M9.5 5.5h5M12 16v5M9.5 18.5h5M3 12h5M5.5 9.5v5M16 12h5M18.5 9.5v5M6.2 6.2l3.5 3.5M8.7 4.7l-3.5 3.5M14.3 14.3l3.5 3.5M15.3 19.3l3.5-3.5"/></g></svg></g><g><circle cx="682.095" cy="228" r="22" fill="#0d1117" stroke="#E92063" stroke-width="1.6" stroke-opacity="0.92"/><svg x="667.095" y="213" width="30" height="30" viewBox="0 0 24 24"><rect x="3" y="5" width="18" height="14" rx="3" fill="none" stroke="#E92063" stroke-width="1.7"/><text x="12" y="14.6" text-anchor="middle" fill="#E92063" font-size="6.4" font-weight="800" font-family="'JetBrains Mono',monospace">PYD</text></svg></g><g><circle cx="758.305" cy="628" r="22" fill="#0d1117" stroke="#F59E0B" stroke-width="1.6" stroke-opacity="0.92"/><svg x="743.305" y="613" width="30" height="30" viewBox="0 0 24 24"><rect x="3" y="5" width="18" height="14" rx="3" fill="none" stroke="#F59E0B" stroke-width="1.7"/><text x="12" y="14.6" text-anchor="middle" fill="#F59E0B" font-size="5.6" font-weight="800" font-family="'JetBrains Mono',monospace">BERT</text></svg></g><g><circle cx="682.095" cy="672" r="22" fill="#0d1117" stroke="#14B8A6" stroke-width="1.6" stroke-opacity="0.92"/><svg x="667.095" y="657" width="30" height="30" viewBox="0 0 24 24"><rect x="3" y="5" width="18" height="14" rx="3" fill="none" stroke="#14B8A6" stroke-width="1.7"/><text x="12" y="14.6" text-anchor="middle" fill="#14B8A6" font-size="7" font-weight="800" font-family="'JetBrains Mono',monospace">ST</text></svg></g><g><circle cx="605.885" cy="628" r="22" fill="#0d1117" stroke="#FF6F00" stroke-width="1.6" stroke-opacity="0.92"/><svg x="590.885" y="613" width="30" height="30" viewBox="0 0 24 24"><path d="M12 3 4.5 7.2v8.6L12 20l7.5-4.2V7.2L12 3Z" fill="none" stroke="#FF6F00" stroke-width="1.7"/><path d="M12 3v17M4.5 7.2 12 11.5l7.5-4.3M8.2 9.4v8.4" stroke="#FF6F00" stroke-width="1.7" stroke-linecap="round"/></svg></g><g><circle cx="605.885" cy="540" r="22" fill="#0d1117" stroke="#4169E1" stroke-width="1.6" stroke-opacity="0.92"/><svg x="590.885" y="525" width="30" height="30" viewBox="0 0 24 24"><rect x="3" y="5" width="18" height="14" rx="3" fill="none" stroke="#4169E1" stroke-width="1.7"/><text x="12" y="14.6" text-anchor="middle" fill="#4169E1" font-size="6.3" font-weight="800" font-family="'JetBrains Mono',monospace">VEC</text></svg></g><g><circle cx="682.095" cy="496" r="22" fill="#0d1117" stroke="#C084FC" stroke-width="1.6" stroke-opacity="0.92"/><svg x="667.095" y="481" width="30" height="30" viewBox="0 0 24 24"><rect x="3" y="5" width="18" height="14" rx="3" fill="none" stroke="#C084FC" stroke-width="1.7"/><text x="12" y="14.6" text-anchor="middle" fill="#C084FC" font-size="5.4" font-weight="800" font-family="'JetBrains Mono',monospace">LoRA</text></svg></g><g><circle cx="758.305" cy="540" r="22" fill="#0d1117" stroke="#38BDF8" stroke-width="1.6" stroke-opacity="0.92"/><svg x="743.305" y="525" width="30" height="30" viewBox="0 0 24 24"><rect x="3" y="5" width="18" height="14" rx="3" fill="none" stroke="#38BDF8" stroke-width="1.7"/><text x="12" y="14.6" text-anchor="middle" fill="#38BDF8" font-size="5.6" font-weight="800" font-family="'JetBrains Mono',monospace">NASA</text></svg></g><g><circle cx="450" cy="806" r="22" fill="#0d1117" stroke="#A855F7" stroke-width="1.6" stroke-opacity="0.92"/><svg x="435" y="791" width="30" height="30" viewBox="0 0 24 24"><path d="M4 4h16L12 12l8 8H4V4Z" fill="#A855F7"/><path d="M4 20 20 4" stroke="#0d1117" stroke-width="1.5" opacity="0.7"/></svg></g><g><circle cx="373.79" cy="762" r="22" fill="#0d1117" stroke="#3DDC84" stroke-width="1.6" stroke-opacity="0.92"/><svg x="358.79" y="747" width="30" height="30" viewBox="0 0 24 24"><path d="M12 3 19.5 7.5v9L12 21l-7.5-4.5v-9L12 3Z" fill="none" stroke="#3DDC84" stroke-width="1.8"/><path d="M12 3v18M4.5 7.5 12 12l7.5-4.5M4.5 16.5 12 12l7.5 4.5" stroke="#3DDC84" stroke-width="1.4"/></svg></g><g><circle cx="373.79" cy="674" r="22" fill="#0d1117" stroke="#EE4C2C" stroke-width="1.6" stroke-opacity="0.92"/><svg x="358.79" y="659" width="30" height="30" viewBox="0 0 24 24"><rect x="3" y="5" width="18" height="14" rx="3" fill="none" stroke="#EE4C2C" stroke-width="1.7"/><text x="12" y="14.6" text-anchor="middle" fill="#EE4C2C" font-size="7" font-weight="800" font-family="'JetBrains Mono',monospace">ET</text></svg></g><g><circle cx="450" cy="630" r="22" fill="#0d1117" stroke="#22D3EE" stroke-width="1.6" stroke-opacity="0.92"/><svg x="435" y="615" width="30" height="30" viewBox="0 0 24 24"><rect x="3" y="5" width="18" height="14" rx="3" fill="none" stroke="#22D3EE" stroke-width="1.7"/><text x="12" y="14.6" text-anchor="middle" fill="#22D3EE" font-size="6.5" font-weight="800" font-family="'JetBrains Mono',monospace">QNN</text></svg></g><g><circle cx="526.21" cy="674" r="22" fill="#0d1117" stroke="#3DDC84" stroke-width="1.6" stroke-opacity="0.92"/><svg x="511.21" y="659" width="30" height="30" viewBox="0 0 24 24"><path d="M7 10h10v7.2c0 1-.8 1.8-1.8 1.8H8.8C7.8 19 7 18.2 7 17.2V10Z" fill="#3DDC84"/><path d="M8 9a4 4 0 0 1 8 0M9 5.3 7.5 3.6M15 5.3l1.5-1.7" fill="none" stroke="#3DDC84" stroke-width="1.6" stroke-linecap="round"/><circle cx="10" cy="13" r=".8" fill="#0d1117"/><circle cx="14" cy="13" r=".8" fill="#0d1117"/></svg></g><g><circle cx="526.21" cy="762" r="22" fill="#0d1117" stroke="#8B5CF6" stroke-width="1.6" stroke-opacity="0.92"/><svg x="511.21" y="747" width="30" height="30" viewBox="0 0 24 24"><path d="M6 18 10.7 6.8c.5-1.2 2.1-1.2 2.6 0L18 18" fill="none" stroke="#8B5CF6" stroke-width="2.4" stroke-linecap="round" stroke-linejoin="round"/></svg></g><g><circle cx="141.695" cy="628" r="22" fill="#0d1117" stroke="#f3edf8" stroke-width="1.6" stroke-opacity="0.92"/><svg x="126.695" y="613" width="30" height="30" viewBox="0 0 24 24"><circle cx="12" cy="12" r="9" fill="none" stroke="#f3edf8" stroke-width="1.7" opacity="0.9"/><path d="M8 17V7l8 10V7" fill="none" stroke="#f3edf8" stroke-width="2" stroke-linecap="round" stroke-linejoin="round"/></svg></g><g><circle cx="141.695" cy="540" r="22" fill="#0d1117" stroke="#61DAFB" stroke-width="1.6" stroke-opacity="0.92"/><svg x="126.695" y="525" width="30" height="30" viewBox="0 0 24 24"><g fill="none" stroke="#61DAFB" stroke-width="1.5"><ellipse cx="12" cy="12" rx="9" ry="3.4"/><ellipse cx="12" cy="12" rx="9" ry="3.4" transform="rotate(60 12 12)"/><ellipse cx="12" cy="12" rx="9" ry="3.4" transform="rotate(120 12 12)"/></g><circle cx="12" cy="12" r="2" fill="#61DAFB"/></svg></g><g><circle cx="217.905" cy="496" r="22" fill="#0d1117" stroke="#3178C6" stroke-width="1.6" stroke-opacity="0.92"/><svg x="202.905" y="481" width="30" height="30" viewBox="0 0 24 24"><rect x="3" y="3" width="18" height="18" rx="2" fill="#3178C6"/><text x="12" y="15.5" text-anchor="middle" fill="#141414" font-size="7" font-weight="700" font-family="'JetBrains Mono',monospace">TS</text></svg></g><g><circle cx="294.115" cy="540" r="22" fill="#0d1117" stroke="#38BDF8" stroke-width="1.6" stroke-opacity="0.92"/><svg x="279.115" y="525" width="30" height="30" viewBox="0 0 24 24"><path d="M4 12c2.2-4.4 5.2-5.7 9-3.8 1.4.7 2.4 1.9 4.1 1.5 1.1-.3 2-1 2.9-2.1-2.2 4.4-5.2 5.7-9 3.8-1.4-.7-2.4-1.9-4.1-1.5C5.8 10.2 4.9 10.9 4 12Zm0 5c2.2-4.4 5.2-5.7 9-3.8 1.4.7 2.4 1.9 4.1 1.5 1.1-.3 2-1 2.9-2.1-2.2 4.4-5.2 5.7-9 3.8-1.4-.7-2.4-1.9-4.1-1.5C5.8 15.2 4.9 15.9 4 17Z" fill="#38BDF8"/></svg></g><g><circle cx="294.115" cy="628" r="22" fill="#0d1117" stroke="#EC4899" stroke-width="1.6" stroke-opacity="0.92"/><svg x="279.115" y="613" width="30" height="30" viewBox="0 0 24 24"><path d="M6 3h12v6H6V3Zm0 6h12l-6 6H6V9Zm0 6h6v6l-6-6Z" fill="#EC4899"/></svg></g><g><circle cx="217.905" cy="672" r="22" fill="#0d1117" stroke="#8B5CF6" stroke-width="1.6" stroke-opacity="0.92"/><svg x="202.905" y="657" width="30" height="30" viewBox="0 0 24 24"><path d="M6 18 10.7 6.8c.5-1.2 2.1-1.2 2.6 0L18 18" fill="none" stroke="#8B5CF6" stroke-width="2.4" stroke-linecap="round" stroke-linejoin="round"/></svg></g><g><circle cx="141.695" cy="272" r="22" fill="#0d1117" stroke="#10B981" stroke-width="1.6" stroke-opacity="0.92"/><svg x="126.695" y="257" width="30" height="30" viewBox="0 0 24 24"><circle cx="12" cy="12" r="9" fill="#10B981"/><path d="M13.2 4.8 7.8 13h3.4l-1 6.2 6-8.5h-3.5l.5-5.9Z" fill="#0d1117"/></svg></g><g><circle cx="217.905" cy="228" r="22" fill="#0d1117" stroke="#4169E1" stroke-width="1.6" stroke-opacity="0.92"/><svg x="202.905" y="213" width="30" height="30" viewBox="0 0 24 24"><ellipse cx="12" cy="6" rx="6.8" ry="3" fill="none" stroke="#4169E1" stroke-width="1.8"/><path d="M5.2 6v10c0 1.7 3 3.1 6.8 3.1s6.8-1.4 6.8-3.1V6M5.2 11c0 1.7 3 3.1 6.8 3.1s6.8-1.4 6.8-3.1" fill="none" stroke="#4169E1" stroke-width="1.8"/></svg></g><g><circle cx="294.115" cy="272" r="22" fill="#0d1117" stroke="#3ECF8E" stroke-width="1.6" stroke-opacity="0.92"/><svg x="279.115" y="257" width="30" height="30" viewBox="0 0 24 24"><path d="M13 3 5 13h6l-1 8 9-11h-6l0-7Z" fill="#3ECF8E"/></svg></g><g><circle cx="294.115" cy="360" r="22" fill="#0d1117" stroke="#2496ED" stroke-width="1.6" stroke-opacity="0.92"/><svg x="279.115" y="345" width="30" height="30" viewBox="0 0 24 24"><g fill="#2496ED"><rect x="4" y="10" width="3" height="3" rx=".4"/><rect x="8" y="10" width="3" height="3" rx=".4"/><rect x="12" y="10" width="3" height="3" rx=".4"/><rect x="8" y="6" width="3" height="3" rx=".4"/><rect x="12" y="6" width="3" height="3" rx=".4"/><path d="M3 14h15.5c-.7 3-3.4 5-7.6 5C7.2 19 4.5 17.5 3 14Z"/><path d="M18 10.5c1.3 0 2.2.7 2.9 1.8-1 .5-2.1.6-3.2.3.1-.8.2-1.5.3-2.1Z"/></g></svg></g><g><circle cx="217.905" cy="404" r="22" fill="#0d1117" stroke="#FF9900" stroke-width="1.6" stroke-opacity="0.92"/><svg x="202.905" y="389" width="30" height="30" viewBox="0 0 24 24"><text x="12" y="11.5" text-anchor="middle" fill="#FF9900" font-size="7" font-weight="900" font-family="'JetBrains Mono',monospace">AWS</text><path d="M7 15c3 2 7 2 10 0" fill="none" stroke="#FF9900" stroke-width="1.8" stroke-linecap="round"/><path d="M16.4 14.5 18 15l-.7 1.5" fill="none" stroke="#FF9900" stroke-width="1.5" stroke-linecap="round"/></svg></g><g><circle cx="141.695" cy="360" r="22" fill="#0d1117" stroke="#A1A1AA" stroke-width="1.6" stroke-opacity="0.92"/><svg x="126.695" y="345" width="30" height="30" viewBox="0 0 24 24"><path d="M12 4 22 20H2L12 4Z" fill="#A1A1AA"/></svg></g></g>
<g><g><circle cx="450" cy="182" r="40" fill="none" stroke="#bd93f9" stroke-width="1" stroke-opacity="0.16"/><circle cx="450" cy="182" r="34" fill="#1a1b27" stroke="#bd93f9" stroke-width="1.5"/><text x="450" y="186.5" text-anchor="middle" fill="#bd93f9" font-size="13" font-weight="700" letter-spacing="0.5" font-family="'JetBrains Mono',monospace">AGT</text></g><g><circle cx="682.095" cy="316" r="40" fill="none" stroke="#bd93f9" stroke-width="1" stroke-opacity="0.16"/><circle cx="682.095" cy="316" r="34" fill="#1a1b27" stroke="#bd93f9" stroke-width="1.5"/><text x="682.095" y="320.5" text-anchor="middle" fill="#bd93f9" font-size="13" font-weight="700" letter-spacing="0.5" font-family="'JetBrains Mono',monospace">OCR</text></g><g><circle cx="682.095" cy="584" r="40" fill="none" stroke="#bd93f9" stroke-width="1" stroke-opacity="0.16"/><circle cx="682.095" cy="584" r="34" fill="#1a1b27" stroke="#bd93f9" stroke-width="1.5"/><text x="682.095" y="588.5" text-anchor="middle" fill="#bd93f9" font-size="13" font-weight="700" letter-spacing="0.5" font-family="'JetBrains Mono',monospace">ML</text></g><g><circle cx="450" cy="718" r="40" fill="none" stroke="#bd93f9" stroke-width="1" stroke-opacity="0.16"/><circle cx="450" cy="718" r="34" fill="#1a1b27" stroke="#bd93f9" stroke-width="1.5"/><text x="450" y="722.5" text-anchor="middle" fill="#bd93f9" font-size="13" font-weight="700" letter-spacing="0.5" font-family="'JetBrains Mono',monospace">EDGE</text></g><g><circle cx="217.905" cy="584" r="40" fill="none" stroke="#bd93f9" stroke-width="1" stroke-opacity="0.16"/><circle cx="217.905" cy="584" r="34" fill="#1a1b27" stroke="#bd93f9" stroke-width="1.5"/><text x="217.905" y="588.5" text-anchor="middle" fill="#bd93f9" font-size="13" font-weight="700" letter-spacing="0.5" font-family="'JetBrains Mono',monospace">UI</text></g><g><circle cx="217.905" cy="316" r="40" fill="none" stroke="#bd93f9" stroke-width="1" stroke-opacity="0.16"/><circle cx="217.905" cy="316" r="34" fill="#1a1b27" stroke="#bd93f9" stroke-width="1.5"/><text x="217.905" y="320.5" text-anchor="middle" fill="#bd93f9" font-size="13" font-weight="700" letter-spacing="0.5" font-family="'JetBrains Mono',monospace">SYS</text></g></g>
<g><circle cx="450" cy="450" r="88" fill="url(#coreGlow)"/><circle cx="450" cy="450" r="54" fill="#1a1b27" stroke="#bd93f9" stroke-width="1.6"/><circle cx="450" cy="450" r="64" fill="none" stroke="#bd93f9" stroke-width="1" stroke-opacity="0.35"/><text x="450" y="448" text-anchor="middle" fill="#f8f8f2" font-size="30" font-weight="700" font-family="'Cormorant Garamond',Georgia,serif">AI</text><text x="450" y="468" text-anchor="middle" fill="#6272a4" font-size="10" letter-spacing="4" font-family="'JetBrains Mono',monospace">CORE</text></g>
</svg>
